<svg xmlns="http://www.w3.org/2000/svg" xmlns:xlink="http://www.w3.org/1999/xlink" width="1920" zoomAndPan="magnify" viewBox="0 0 1440 809.999993" height="1080" preserveAspectRatio="xMidYMid meet" version="1.2"><defs/><g id="2b88601194"><rect x="0" width="1440" y="0" height="809.999993" style="fill:#ffffff;fill-opacity:1;stroke:none;"/><rect x="0" width="1440" y="0" height="809.999993" style="fill:#000000;fill-opacity:1;stroke:none;"/><g style="fill:#e95027;fill-opacity:1;"><g transform="translate(140.513107, 443.70313)"><path style="stroke:none" d="M 65.34375 44.25 L 59.6875 44.25 C 54.0625 44.25 49.207031 43.75 45.125 42.75 C 41.039062 41.757812 37.453125 39.273438 34.359375 35.296875 C 31.273438 31.316406 29.335938 26.582031 28.546875 21.09375 C 27.765625 15.601562 27.304688 6.476562 27.171875 -6.28125 C 27.171875 -15.195312 26.804688 -22.257812 26.078125 -27.46875 C 25.359375 -32.6875 23.457031 -37.078125 20.375 -40.640625 C 17.289062 -44.210938 12.453125 -46.066406 5.859375 -46.203125 L 5.859375 -62.984375 C 12.453125 -63.117188 17.289062 -64.953125 20.375 -68.484375 C 23.457031 -72.015625 25.359375 -76.382812 26.078125 -81.59375 C 26.804688 -86.8125 27.171875 -93.878906 27.171875 -102.796875 C 27.304688 -115.492188 27.75 -124.566406 28.5 -130.015625 C 29.257812 -135.472656 31.164062 -140.222656 34.21875 -144.265625 C 37.269531 -148.316406 40.851562 -150.859375 44.96875 -151.890625 C 49.082031 -152.921875 53.988281 -153.4375 59.6875 -153.4375 L 65.34375 -153.4375 L 65.34375 -137.375 L 62.15625 -137.375 C 55.09375 -137.375 50.375 -136.085938 48 -133.515625 C 45.632812 -130.941406 44.453125 -125.128906 44.453125 -116.078125 C 44.453125 -101.054688 44.125 -90.179688 43.46875 -83.453125 C 42.820312 -76.734375 41.003906 -71.09375 38.015625 -66.53125 C 35.035156 -61.96875 30.015625 -57.972656 22.953125 -54.546875 C 29.941406 -51.734375 35.269531 -47.171875 38.9375 -40.859375 C 42.613281 -34.546875 44.453125 -23.601562 44.453125 -8.03125 C 44.453125 6.3125 44.757812 15.09375 45.375 18.3125 C 46 21.539062 47.1875 23.992188 48.9375 25.671875 C 50.6875 27.359375 55.09375 28.203125 62.15625 28.203125 L 65.34375 28.203125 Z M 65.34375 44.25 "/></g></g><g style="fill:#e95027;fill-opacity:1;"><g transform="translate(210.896351, 443.70313)"><path style="stroke:none" d=""/></g></g><g style="fill:#e95027;fill-opacity:1;"><g transform="translate(269.44409, 443.70313)"><path style="stroke:none" d=""/></g></g><g style="fill:#e95027;fill-opacity:1;"><g transform="translate(327.99183, 443.70313)"><path style="stroke:none" d=""/></g></g><g style="fill:#e95027;fill-opacity:1;"><g transform="translate(386.540164, 443.70313)"><path style="stroke:none" d="M 64.515625 -46.203125 C 57.929688 -46.066406 53.113281 -44.234375 50.0625 -40.703125 C 47.007812 -37.171875 45.125 -32.847656 44.40625 -27.734375 C 43.6875 -22.617188 43.289062 -15.46875 43.21875 -6.28125 C 43.082031 6.34375 42.632812 15.378906 41.875 20.828125 C 41.125 26.285156 39.222656 31.035156 36.171875 35.078125 C 33.117188 39.128906 29.535156 41.671875 25.421875 42.703125 C 21.304688 43.734375 16.398438 44.25 10.703125 44.25 L 5.046875 44.25 L 5.046875 28.203125 L 8.234375 28.203125 C 15.296875 28.203125 20.007812 26.914062 22.375 24.34375 C 24.75 21.769531 25.9375 15.988281 25.9375 7 C 25.9375 -8.09375 26.257812 -19 26.90625 -25.71875 C 27.5625 -32.445312 29.378906 -38.09375 32.359375 -42.65625 C 35.347656 -47.21875 40.375 -51.179688 47.4375 -54.546875 C 40.4375 -57.421875 35.101562 -62.015625 31.4375 -68.328125 C 27.769531 -74.640625 25.9375 -85.582031 25.9375 -101.15625 C 25.9375 -115.488281 25.625 -124.25 25 -127.4375 C 24.382812 -130.632812 23.203125 -133.085938 21.453125 -134.796875 C 19.703125 -136.515625 15.296875 -137.375 8.234375 -137.375 L 5.046875 -137.375 L 5.046875 -153.4375 L 10.703125 -153.4375 C 16.398438 -153.4375 21.320312 -152.898438 25.46875 -151.828125 C 29.613281 -150.765625 33.25 -148.160156 36.375 -144.015625 C 39.5 -139.867188 41.421875 -135.117188 42.140625 -129.765625 C 42.859375 -124.410156 43.21875 -115.421875 43.21875 -102.796875 C 43.21875 -93.953125 43.578125 -86.921875 44.296875 -81.703125 C 45.015625 -76.492188 46.914062 -72.101562 50 -68.53125 C 53.09375 -64.96875 57.929688 -63.117188 64.515625 -62.984375 Z M 64.515625 -46.203125 "/></g></g><g style="fill:#e95027;fill-opacity:1;"><g transform="translate(243.888523, 434.996954)"><path style="stroke:none" d="M 8.53125 -21.015625 L 38.796875 -43.0625 L 8.53125 -64.8125 L 8.53125 -80.6875 L 50.703125 -50.859375 L 50.703125 -35.125 L 8.53125 -5.296875 Z M 8.53125 -21.015625 "/></g></g><g style="fill:#e95027;fill-opacity:1;"><g transform="translate(298.710676, 434.996954)"><path style="stroke:none" d="M 8.53125 -21.015625 L 38.796875 -43.0625 L 8.53125 -64.8125 L 8.53125 -80.6875 L 50.703125 -50.859375 L 50.703125 -35.125 L 8.53125 -5.296875 Z M 8.53125 -21.015625 "/></g></g><g style="fill:#ffffff;fill-opacity:1;"><g transform="translate(503.793317, 454.153705)"><path style="stroke:none" d="M 75.078125 0 L 17.765625 0 L 17.765625 -99.625 L 31.5625 -99.625 L 31.5625 -11.59375 L 75.078125 -11.59375 Z M 75.078125 0 "/></g></g><g style="fill:#ffffff;fill-opacity:1;"><g transform="translate(583.997825, 454.153705)"><path style="stroke:none" d="M 78.8125 -38.875 C 78.8125 -32.925781 77.972656 -27.472656 76.296875 -22.515625 C 74.617188 -17.566406 72.203125 -13.328125 69.046875 -9.796875 C 65.898438 -6.265625 62.066406 -3.519531 57.546875 -1.5625 C 53.023438 0.394531 47.894531 1.375 42.15625 1.375 C 36.664062 1.375 31.75 0.523438 27.40625 -1.171875 C 23.0625 -2.878906 19.375 -5.382812 16.34375 -8.6875 C 13.320312 -11.988281 11.007812 -16.078125 9.40625 -20.953125 C 7.8125 -25.835938 7.015625 -31.457031 7.015625 -37.8125 C 7.015625 -43.75 7.851562 -49.171875 9.53125 -54.078125 C 11.207031 -58.984375 13.617188 -63.203125 16.765625 -66.734375 C 19.921875 -70.265625 23.757812 -73.007812 28.28125 -74.96875 C 32.800781 -76.925781 37.929688 -77.90625 43.671875 -77.90625 C 49.160156 -77.90625 54.078125 -77.050781 58.421875 -75.34375 C 62.765625 -73.644531 66.445312 -71.15625 69.46875 -67.875 C 72.5 -64.601562 74.8125 -60.523438 76.40625 -55.640625 C 78.007812 -50.765625 78.8125 -45.175781 78.8125 -38.875 Z M 65.25 -38.265625 C 65.25 -42.992188 64.726562 -47.125 63.6875 -50.65625 C 62.644531 -54.1875 61.15625 -57.128906 59.21875 -59.484375 C 57.289062 -61.847656 54.941406 -63.628906 52.171875 -64.828125 C 49.398438 -66.023438 46.316406 -66.625 42.921875 -66.625 C 38.953125 -66.625 35.554688 -65.847656 32.734375 -64.296875 C 29.921875 -62.742188 27.609375 -60.671875 25.796875 -58.078125 C 23.992188 -55.492188 22.671875 -52.484375 21.828125 -49.046875 C 20.992188 -45.617188 20.578125 -42.023438 20.578125 -38.265625 C 20.578125 -33.535156 21.097656 -29.390625 22.140625 -25.828125 C 23.179688 -22.273438 24.664062 -19.316406 26.59375 -16.953125 C 28.53125 -14.597656 30.867188 -12.820312 33.609375 -11.625 C 36.359375 -10.425781 39.460938 -9.828125 42.921875 -9.828125 C 46.878906 -9.828125 50.269531 -10.601562 53.09375 -12.15625 C 55.914062 -13.707031 58.226562 -15.773438 60.03125 -18.359375 C 61.832031 -20.953125 63.148438 -23.960938 63.984375 -27.390625 C 64.828125 -30.828125 65.25 -34.453125 65.25 -38.265625 Z M 65.25 -38.265625 "/></g></g><g style="fill:#ffffff;fill-opacity:1;"><g transform="translate(664.202334, 454.153705)"><path style="stroke:none" d="M 72.796875 -20.890625 C 72.796875 -18.191406 72.335938 -15.773438 71.421875 -13.640625 C 70.503906 -11.503906 69.257812 -9.609375 67.6875 -7.953125 C 66.113281 -6.304688 64.285156 -4.898438 62.203125 -3.734375 C 60.117188 -2.566406 57.894531 -1.597656 55.53125 -0.828125 C 53.164062 -0.0664062 50.738281 0.488281 48.25 0.84375 C 45.757812 1.195312 43.320312 1.375 40.9375 1.375 C 35.75 1.375 30.984375 1.144531 26.640625 0.6875 C 22.296875 0.226562 18.039062 -0.507812 13.875 -1.53125 L 13.875 -13.71875 C 18.34375 -12.445312 22.785156 -11.476562 27.203125 -10.8125 C 31.628906 -10.15625 36.03125 -9.828125 40.40625 -9.828125 C 46.75 -9.828125 51.445312 -10.691406 54.5 -12.421875 C 57.550781 -14.148438 59.078125 -16.613281 59.078125 -19.8125 C 59.078125 -21.1875 58.832031 -22.421875 58.34375 -23.515625 C 57.863281 -24.609375 56.988281 -25.648438 55.71875 -26.640625 C 54.445312 -27.628906 52.476562 -28.65625 49.8125 -29.71875 C 47.144531 -30.789062 43.5 -32.015625 38.875 -33.390625 C 35.414062 -34.398438 32.222656 -35.550781 29.296875 -36.84375 C 26.378906 -38.144531 23.851562 -39.6875 21.71875 -41.46875 C 19.582031 -43.25 17.90625 -45.332031 16.6875 -47.71875 C 15.46875 -50.101562 14.859375 -52.921875 14.859375 -56.171875 C 14.859375 -58.304688 15.351562 -60.644531 16.34375 -63.1875 C 17.34375 -65.726562 19.035156 -68.09375 21.421875 -70.28125 C 23.804688 -72.46875 27.03125 -74.285156 31.09375 -75.734375 C 35.164062 -77.179688 40.25 -77.90625 46.34375 -77.90625 C 49.34375 -77.90625 52.671875 -77.738281 56.328125 -77.40625 C 59.984375 -77.070312 63.796875 -76.5 67.765625 -75.6875 L 67.765625 -63.875 C 63.597656 -64.894531 59.644531 -65.644531 55.90625 -66.125 C 52.175781 -66.601562 48.9375 -66.84375 46.1875 -66.84375 C 42.882812 -66.84375 40.101562 -66.585938 37.84375 -66.078125 C 35.582031 -65.578125 33.753906 -64.878906 32.359375 -63.984375 C 30.960938 -63.097656 29.957031 -62.054688 29.34375 -60.859375 C 28.738281 -59.671875 28.4375 -58.390625 28.4375 -57.015625 C 28.4375 -55.640625 28.703125 -54.394531 29.234375 -53.28125 C 29.765625 -52.164062 30.753906 -51.085938 32.203125 -50.046875 C 33.648438 -49.003906 35.671875 -47.960938 38.265625 -46.921875 C 40.859375 -45.878906 44.238281 -44.75 48.40625 -43.53125 C 52.925781 -42.207031 56.734375 -40.820312 59.828125 -39.375 C 62.929688 -37.925781 65.445312 -36.3125 67.375 -34.53125 C 69.3125 -32.75 70.695312 -30.738281 71.53125 -28.5 C 72.375 -26.269531 72.796875 -23.734375 72.796875 -20.890625 Z M 72.796875 -20.890625 "/></g></g><g style="fill:#e95027;fill-opacity:1;"><g transform="translate(810.306301, 454.153705)"><path style="stroke:none" d="M 75.84375 -3.734375 C 67.863281 -0.429688 59.503906 1.21875 50.765625 1.21875 C 36.691406 1.21875 25.878906 -2.984375 18.328125 -11.390625 C 10.785156 -19.804688 7.015625 -32.242188 7.015625 -48.703125 C 7.015625 -56.679688 8.054688 -63.894531 10.140625 -70.34375 C 12.222656 -76.800781 15.191406 -82.28125 19.046875 -86.78125 C 22.910156 -91.28125 27.585938 -94.75 33.078125 -97.1875 C 38.566406 -99.625 44.71875 -100.84375 51.53125 -100.84375 C 56.15625 -100.84375 60.445312 -100.445312 64.40625 -99.65625 C 68.375 -98.875 72.1875 -97.671875 75.84375 -96.046875 L 75.84375 -82.703125 C 72.238281 -84.679688 68.503906 -86.191406 64.640625 -87.234375 C 60.773438 -88.273438 56.554688 -88.796875 51.984375 -88.796875 C 47.304688 -88.796875 43.070312 -87.921875 39.28125 -86.171875 C 35.5 -84.421875 32.285156 -81.878906 29.640625 -78.546875 C 27.003906 -75.222656 24.972656 -71.160156 23.546875 -66.359375 C 22.128906 -61.554688 21.421875 -56.078125 21.421875 -49.921875 C 21.421875 -37.015625 24.035156 -27.285156 29.265625 -20.734375 C 34.503906 -14.179688 42.179688 -10.90625 52.296875 -10.90625 C 56.554688 -10.90625 60.644531 -11.398438 64.5625 -12.390625 C 68.476562 -13.378906 72.238281 -14.765625 75.84375 -16.546875 Z M 75.84375 -3.734375 "/></g></g><g style="fill:#e95027;fill-opacity:1;"><g transform="translate(890.51081, 454.153705)"><path style="stroke:none" d="M 78.8125 -38.875 C 78.8125 -32.925781 77.972656 -27.472656 76.296875 -22.515625 C 74.617188 -17.566406 72.203125 -13.328125 69.046875 -9.796875 C 65.898438 -6.265625 62.066406 -3.519531 57.546875 -1.5625 C 53.023438 0.394531 47.894531 1.375 42.15625 1.375 C 36.664062 1.375 31.75 0.523438 27.40625 -1.171875 C 23.0625 -2.878906 19.375 -5.382812 16.34375 -8.6875 C 13.320312 -11.988281 11.007812 -16.078125 9.40625 -20.953125 C 7.8125 -25.835938 7.015625 -31.457031 7.015625 -37.8125 C 7.015625 -43.75 7.851562 -49.171875 9.53125 -54.078125 C 11.207031 -58.984375 13.617188 -63.203125 16.765625 -66.734375 C 19.921875 -70.265625 23.757812 -73.007812 28.28125 -74.96875 C 32.800781 -76.925781 37.929688 -77.90625 43.671875 -77.90625 C 49.160156 -77.90625 54.078125 -77.050781 58.421875 -75.34375 C 62.765625 -73.644531 66.445312 -71.15625 69.46875 -67.875 C 72.5 -64.601562 74.8125 -60.523438 76.40625 -55.640625 C 78.007812 -50.765625 78.8125 -45.175781 78.8125 -38.875 Z M 65.25 -38.265625 C 65.25 -42.992188 64.726562 -47.125 63.6875 -50.65625 C 62.644531 -54.1875 61.15625 -57.128906 59.21875 -59.484375 C 57.289062 -61.847656 54.941406 -63.628906 52.171875 -64.828125 C 49.398438 -66.023438 46.316406 -66.625 42.921875 -66.625 C 38.953125 -66.625 35.554688 -65.847656 32.734375 -64.296875 C 29.921875 -62.742188 27.609375 -60.671875 25.796875 -58.078125 C 23.992188 -55.492188 22.671875 -52.484375 21.828125 -49.046875 C 20.992188 -45.617188 20.578125 -42.023438 20.578125 -38.265625 C 20.578125 -33.535156 21.097656 -29.390625 22.140625 -25.828125 C 23.179688 -22.273438 24.664062 -19.316406 26.59375 -16.953125 C 28.53125 -14.597656 30.867188 -12.820312 33.609375 -11.625 C 36.359375 -10.425781 39.460938 -9.828125 42.921875 -9.828125 C 46.878906 -9.828125 50.269531 -10.601562 53.09375 -12.15625 C 55.914062 -13.707031 58.226562 -15.773438 60.03125 -18.359375 C 61.832031 -20.953125 63.148438 -23.960938 63.984375 -27.390625 C 64.828125 -30.828125 65.25 -34.453125 65.25 -38.265625 Z M 65.25 -38.265625 "/></g></g><g style="fill:#e95027;fill-opacity:1;"><g transform="translate(970.715318, 454.153705)"><path style="stroke:none" d="M 8.3125 -36.671875 C 8.3125 -43.171875 9.195312 -48.945312 10.96875 -54 C 12.75 -59.0625 15.28125 -63.332031 18.5625 -66.8125 C 21.84375 -70.289062 25.78125 -72.929688 30.375 -74.734375 C 34.976562 -76.535156 40.097656 -77.4375 45.734375 -77.4375 C 48.171875 -77.4375 50.570312 -77.285156 52.9375 -76.984375 C 55.300781 -76.679688 57.625 -76.203125 59.90625 -75.546875 L 59.90625 -107.703125 L 73.25 -107.703125 L 73.25 0 L 61.359375 0 L 60.90625 -14.484375 C 57.195312 -9.097656 53.179688 -5.109375 48.859375 -2.515625 C 44.535156 0.078125 39.859375 1.375 34.828125 1.375 C 30.460938 1.375 26.613281 0.460938 23.28125 -1.359375 C 19.957031 -3.191406 17.1875 -5.773438 14.96875 -9.109375 C 12.757812 -12.441406 11.097656 -16.441406 9.984375 -21.109375 C 8.867188 -25.785156 8.3125 -30.972656 8.3125 -36.671875 Z M 21.875 -37.5 C 21.875 -28.25 23.234375 -21.347656 25.953125 -16.796875 C 28.671875 -12.253906 32.519531 -9.984375 37.5 -9.984375 C 40.851562 -9.984375 44.394531 -11.484375 48.125 -14.484375 C 51.863281 -17.484375 55.789062 -21.929688 59.90625 -27.828125 L 59.90625 -63.34375 C 57.726562 -64.363281 55.316406 -65.140625 52.671875 -65.671875 C 50.023438 -66.203125 47.410156 -66.46875 44.828125 -66.46875 C 37.609375 -66.46875 31.976562 -64.128906 27.9375 -59.453125 C 23.894531 -54.773438 21.875 -47.457031 21.875 -37.5 Z M 21.875 -37.5 "/></g></g><g style="fill:#ffffff;fill-opacity:1;"><g transform="translate(1050.923659, 454.153705)"><path style="stroke:none" d="M 76.828125 -42.3125 C 76.828125 -40.425781 76.800781 -38.847656 76.75 -37.578125 C 76.707031 -36.304688 76.632812 -35.113281 76.53125 -34 L 22.796875 -34 C 22.796875 -26.164062 24.976562 -20.15625 29.34375 -15.96875 C 33.71875 -11.78125 40.019531 -9.6875 48.25 -9.6875 C 50.488281 -9.6875 52.722656 -9.773438 54.953125 -9.953125 C 57.191406 -10.128906 59.351562 -10.367188 61.4375 -10.671875 C 63.519531 -10.972656 65.515625 -11.3125 67.421875 -11.6875 C 69.328125 -12.070312 71.09375 -12.492188 72.71875 -12.953125 L 72.71875 -2.0625 C 69.113281 -1.039062 65.035156 -0.210938 60.484375 0.421875 C 55.929688 1.054688 51.21875 1.375 46.34375 1.375 C 39.789062 1.375 34.148438 0.484375 29.421875 -1.296875 C 24.691406 -3.078125 20.816406 -5.65625 17.796875 -9.03125 C 14.773438 -12.414062 12.539062 -16.554688 11.09375 -21.453125 C 9.644531 -26.359375 8.921875 -31.910156 8.921875 -38.109375 C 8.921875 -43.492188 9.691406 -48.585938 11.234375 -53.390625 C 12.785156 -58.191406 15.046875 -62.410156 18.015625 -66.046875 C 20.992188 -69.679688 24.640625 -72.566406 28.953125 -74.703125 C 33.273438 -76.835938 38.179688 -77.90625 43.671875 -77.90625 C 49.015625 -77.90625 53.742188 -77.066406 57.859375 -75.390625 C 61.972656 -73.710938 65.4375 -71.332031 68.25 -68.25 C 71.070312 -65.175781 73.207031 -61.441406 74.65625 -57.046875 C 76.101562 -52.660156 76.828125 -47.75 76.828125 -42.3125 Z M 63.03125 -44.203125 C 63.1875 -47.609375 62.859375 -50.722656 62.046875 -53.546875 C 61.234375 -56.367188 59.972656 -58.796875 58.265625 -60.828125 C 56.566406 -62.859375 54.445312 -64.445312 51.90625 -65.59375 C 49.363281 -66.738281 46.414062 -67.3125 43.0625 -67.3125 C 40.164062 -67.3125 37.523438 -66.75 35.140625 -65.625 C 32.753906 -64.507812 30.695312 -62.9375 28.96875 -60.90625 C 27.238281 -58.875 25.835938 -56.429688 24.765625 -53.578125 C 23.703125 -50.734375 23.046875 -47.609375 22.796875 -44.203125 Z M 63.03125 -44.203125 "/></g></g><g style="fill:#ffffff;fill-opacity:1;"><g transform="translate(1131.128167, 454.153705)"><path style="stroke:none" d="M 15.328125 -76.53125 L 27.4375 -76.53125 L 27.828125 -62.421875 C 32.347656 -67.859375 36.804688 -71.796875 41.203125 -74.234375 C 45.597656 -76.679688 50.03125 -77.90625 54.5 -77.90625 C 62.425781 -77.90625 68.4375 -75.335938 72.53125 -70.203125 C 76.625 -65.066406 78.515625 -57.441406 78.203125 -47.328125 L 64.796875 -47.328125 C 64.941406 -54.035156 63.957031 -58.898438 61.84375 -61.921875 C 59.738281 -64.953125 56.65625 -66.46875 52.59375 -66.46875 C 50.8125 -66.46875 49.019531 -66.148438 47.21875 -65.515625 C 45.414062 -64.878906 43.5625 -63.863281 41.65625 -62.46875 C 39.75 -61.070312 37.726562 -59.28125 35.59375 -57.09375 C 33.457031 -54.90625 31.171875 -52.265625 28.734375 -49.171875 L 28.734375 0 L 15.328125 0 Z M 15.328125 -76.53125 "/></g></g><g style="fill:#ffffff;fill-opacity:1;"><g transform="translate(1211.332676, 454.153705)"><path style="stroke:none" d="M 72.796875 -20.890625 C 72.796875 -18.191406 72.335938 -15.773438 71.421875 -13.640625 C 70.503906 -11.503906 69.257812 -9.609375 67.6875 -7.953125 C 66.113281 -6.304688 64.285156 -4.898438 62.203125 -3.734375 C 60.117188 -2.566406 57.894531 -1.597656 55.53125 -0.828125 C 53.164062 -0.0664062 50.738281 0.488281 48.25 0.84375 C 45.757812 1.195312 43.320312 1.375 40.9375 1.375 C 35.75 1.375 30.984375 1.144531 26.640625 0.6875 C 22.296875 0.226562 18.039062 -0.507812 13.875 -1.53125 L 13.875 -13.71875 C 18.34375 -12.445312 22.785156 -11.476562 27.203125 -10.8125 C 31.628906 -10.15625 36.03125 -9.828125 40.40625 -9.828125 C 46.75 -9.828125 51.445312 -10.691406 54.5 -12.421875 C 57.550781 -14.148438 59.078125 -16.613281 59.078125 -19.8125 C 59.078125 -21.1875 58.832031 -22.421875 58.34375 -23.515625 C 57.863281 -24.609375 56.988281 -25.648438 55.71875 -26.640625 C 54.445312 -27.628906 52.476562 -28.65625 49.8125 -29.71875 C 47.144531 -30.789062 43.5 -32.015625 38.875 -33.390625 C 35.414062 -34.398438 32.222656 -35.550781 29.296875 -36.84375 C 26.378906 -38.144531 23.851562 -39.6875 21.71875 -41.46875 C 19.582031 -43.25 17.90625 -45.332031 16.6875 -47.71875 C 15.46875 -50.101562 14.859375 -52.921875 14.859375 -56.171875 C 14.859375 -58.304688 15.351562 -60.644531 16.34375 -63.1875 C 17.34375 -65.726562 19.035156 -68.09375 21.421875 -70.28125 C 23.804688 -72.46875 27.03125 -74.285156 31.09375 -75.734375 C 35.164062 -77.179688 40.25 -77.90625 46.34375 -77.90625 C 49.34375 -77.90625 52.671875 -77.738281 56.328125 -77.40625 C 59.984375 -77.070312 63.796875 -76.5 67.765625 -75.6875 L 67.765625 -63.875 C 63.597656 -64.894531 59.644531 -65.644531 55.90625 -66.125 C 52.175781 -66.601562 48.9375 -66.84375 46.1875 -66.84375 C 42.882812 -66.84375 40.101562 -66.585938 37.84375 -66.078125 C 35.582031 -65.578125 33.753906 -64.878906 32.359375 -63.984375 C 30.960938 -63.097656 29.957031 -62.054688 29.34375 -60.859375 C 28.738281 -59.671875 28.4375 -58.390625 28.4375 -57.015625 C 28.4375 -55.640625 28.703125 -54.394531 29.234375 -53.28125 C 29.765625 -52.164062 30.753906 -51.085938 32.203125 -50.046875 C 33.648438 -49.003906 35.671875 -47.960938 38.265625 -46.921875 C 40.859375 -45.878906 44.238281 -44.75 48.40625 -43.53125 C 52.925781 -42.207031 56.734375 -40.820312 59.828125 -39.375 C 62.929688 -37.925781 65.445312 -36.3125 67.375 -34.53125 C 69.3125 -32.75 70.695312 -30.738281 71.53125 -28.5 C 72.375 -26.269531 72.796875 -23.734375 72.796875 -20.890625 Z M 72.796875 -20.890625 "/></g></g></g></svg>